<svg width="215" height="199" viewBox="0 0 215 199" fill="none" xmlns="http://www.w3.org/2000/svg">
<g style="mix-blend-mode:luminosity" opacity="0.2" filter="url(#filter0_d)">
<path d="M126.698 76.3632C108.002 62.554 85.1256 57.3483 75.6077 64.7423C66.084 72.13 73.5259 89.3183 92.2214 103.127C110.917 116.937 133.794 122.142 143.312 114.748C152.829 107.354 145.393 90.1724 126.698 76.3632Z" fill="url(#paint0_linear)"/>
<path opacity="0.7" d="M126.698 76.3632C108.002 62.554 85.1256 57.3483 75.6077 64.7423C66.084 72.13 73.5259 89.3183 92.2214 103.127C110.917 116.937 133.794 122.142 143.312 114.748C152.829 107.354 145.393 90.1724 126.698 76.3632ZM92.4032 102.909C85.9993 98.1836 80.698 92.8719 77.0621 87.5477C70.5057 77.9467 70.06 69.524 75.8716 65.0103C85.278 57.7098 107.991 62.9031 126.51 76.5752C132.914 81.3071 138.216 86.6125 141.851 91.9367C148.408 101.538 148.853 109.96 143.042 114.474C133.641 121.775 110.923 116.588 92.4032 102.909Z" fill="url(#paint1_linear)"/>
<path d="M116.441 84.231L114.805 80.4716L119.801 81.6188L121.438 85.3656L116.441 84.231ZM97.2588 94.0938L98.9009 97.8469L103.891 98.994L102.261 95.2409L97.2588 94.0938ZM139.324 111.874C130.955 118.371 110.7 113.732 94.1683 101.519C77.6367 89.312 70.9983 74.0876 79.3726 67.5914C87.741 61.0951 108.002 65.7397 124.534 77.9529C141.06 90.1599 147.698 105.378 139.324 111.874ZM136.603 109.861C144.215 103.957 138.18 90.1225 123.156 79.0253C108.131 67.928 89.7114 63.7011 82.0995 69.6051C74.4876 75.5091 80.5279 89.3494 95.5523 100.453C110.577 111.55 128.991 115.771 136.603 109.861ZM130.562 103.583C130.41 103.439 127.836 101.6 126.633 100.746C129.114 98.4329 127.366 94.63 123.22 91.5689C116.987 86.9616 112.858 86.7933 108.847 86.8058C106.085 86.7746 103.886 87.2921 101.405 85.4529C100.097 84.4866 99.974 83.5265 100.613 83.0277C101.317 82.4791 103.798 82.9342 107.158 84.817C107.287 84.7609 107.457 84.6549 107.65 84.5053C108.325 83.9816 109.316 82.9218 109.973 81.6437C107.709 79.9729 99.8626 74.1749 98.8481 73.5016C98.8481 73.5016 95.7634 75.4405 95.564 75.4592C95.5406 75.4779 97.2471 76.7996 98.162 77.5415C97.4817 77.342 96.0156 77.1612 94.4733 77.4978C92.5556 76.1512 89.6117 74.1437 89.5707 74.1749C89.5414 74.1998 88.3333 74.9916 87.7234 75.4654C87.4947 75.6462 87.3481 75.7771 87.3833 75.8083C87.5123 75.9018 89.7818 77.6474 91.6525 78.9629C89.7994 80.8021 91.3593 85.004 96.1153 88.514C101.475 92.4729 105.445 92.8968 109.68 93.0527C113.227 93.196 115.849 92.6225 117.42 93.7821C119.162 95.0664 118.74 95.9953 118.341 96.3008C117.655 96.8307 115.943 96.6998 113.304 94.923C113.239 94.8731 112.723 95.2035 112.137 95.6649C111.122 96.4504 109.885 97.6162 110.295 97.9217C111.697 98.9566 119.731 105.459 119.936 105.44C121.373 105.322 122.646 104.474 123.244 104.007C123.478 103.826 123.607 103.701 123.607 103.701L121.672 102.036C122.329 102.186 123.279 102.186 124.194 101.993C125.349 102.816 128.78 105.316 129.014 105.453C129.061 105.484 129.155 105.434 129.272 105.341C129.771 104.948 130.721 103.726 130.562 103.583Z" fill="url(#paint2_linear)"/>
<path d="M116.635 83.9568L114.999 80.1974L119.995 81.3446L121.631 85.0914L116.635 83.9568ZM97.4524 93.8134L99.0944 97.5665L104.085 98.7136L102.455 94.9605L97.4524 93.8134ZM139.517 111.594C131.149 118.09 110.894 113.452 94.3619 101.239C77.8303 89.0316 71.1919 73.8072 79.5662 67.3109C87.9346 60.8147 108.196 65.4593 124.728 77.6725C141.253 89.8857 147.892 105.098 139.517 111.594ZM136.796 109.586C144.408 103.682 138.374 89.8483 123.349 78.7511C108.325 67.6538 89.905 63.4269 82.2931 69.3309C74.6811 75.2349 80.7214 89.0752 95.7459 100.179C110.77 111.27 129.184 115.49 136.796 109.586ZM130.756 103.302C130.604 103.159 128.029 101.32 126.827 100.465C129.308 98.1525 127.56 94.3495 123.414 91.2884C117.18 86.6812 113.052 86.5129 109.04 86.5254C106.278 86.4942 104.079 87.0116 101.599 85.1725C100.291 84.2061 100.168 83.2461 100.807 82.7473C101.511 82.1987 103.991 82.6538 107.351 84.5366C107.48 84.4805 107.651 84.3745 107.844 84.2249C108.518 83.7012 109.51 82.6413 110.166 81.3633C107.903 79.6924 100.056 73.8945 99.0417 73.2211C99.0417 73.2211 95.957 75.16 95.7576 75.1787C95.7342 75.1974 97.4407 76.5191 98.3555 77.261C97.6753 77.0615 96.2092 76.8807 94.6669 77.2174C92.7492 75.8708 89.8053 73.8633 89.7643 73.8944C89.7349 73.9194 88.5269 74.7112 87.917 75.185C87.6883 75.3658 87.5417 75.4967 87.5768 75.5216C87.7059 75.6152 89.9754 77.3608 91.8461 78.6762C89.993 80.5154 91.5529 84.7111 96.3089 88.2274C101.669 92.1862 105.639 92.6101 109.873 92.766C113.421 92.9094 116.042 92.3358 117.614 93.4954C119.356 94.7797 118.934 95.7086 118.535 96.0141C117.849 96.544 116.136 96.4131 113.497 94.6363C113.433 94.5864 112.917 94.9169 112.33 95.3782C111.316 96.1637 110.078 97.3296 110.489 97.6351C111.89 98.67 119.925 105.172 120.13 105.154C121.567 105.035 122.839 104.187 123.437 103.72C123.672 103.539 123.801 103.414 123.801 103.414L121.866 101.75C122.523 101.899 123.473 101.899 124.387 101.706C125.543 102.529 128.973 105.029 129.208 105.166C129.255 105.197 129.349 105.148 129.466 105.054C129.964 104.667 130.92 103.446 130.756 103.302Z" fill="url(#paint3_linear)"/>
<path opacity="0.7" d="M130.756 103.302C130.603 103.159 128.029 101.32 126.827 100.465C129.307 98.1525 127.56 94.3495 123.414 91.2884C117.18 86.6812 113.051 86.5129 109.04 86.5253C106.278 86.4941 104.079 87.0116 101.598 85.1724C100.291 84.2061 100.167 83.246 100.807 82.7473C101.51 82.1986 103.991 82.6538 107.351 84.5365C107.48 84.4804 107.65 84.3745 107.844 84.2248C108.518 83.7011 109.509 82.6413 110.166 81.3632C107.903 79.6924 100.056 73.8944 99.0415 73.2211C99.0415 73.2211 95.9569 75.16 95.7575 75.1787C95.734 75.1974 97.4406 76.5191 98.3554 77.261C97.6752 77.0615 96.2091 76.8807 94.6667 77.2174C92.7491 75.8707 89.8052 73.8632 89.7641 73.8944C89.7348 73.9194 88.5268 74.7111 87.9169 75.1849C87.6882 75.3657 87.5416 75.4967 87.5767 75.5216C87.7058 75.6151 89.9753 77.3608 91.846 78.6762C89.9929 80.5154 91.5528 84.7111 96.3088 88.2273C101.669 92.1862 105.639 92.6101 109.873 92.766C113.421 92.9094 116.042 92.3358 117.614 93.4954C119.356 94.7797 118.933 95.7086 118.535 96.0141C117.849 96.544 116.136 96.4131 113.497 94.6363C113.433 94.5864 112.917 94.9168 112.33 95.3782C111.316 96.1637 110.078 97.3295 110.489 97.635C111.89 98.6699 119.924 105.172 120.13 105.154C121.567 105.035 122.839 104.187 123.437 103.72C123.672 103.539 123.801 103.414 123.801 103.414L121.866 101.75C122.522 101.899 123.472 101.899 124.387 101.706C125.543 102.529 128.973 105.029 129.208 105.166C129.255 105.197 129.349 105.147 129.466 105.054C129.964 104.667 130.92 103.445 130.756 103.302ZM129.249 104.979C128.991 104.805 127.783 103.932 126.71 103.159C125.836 102.529 124.962 101.893 124.481 101.55L124.422 101.507L124.352 101.519C123.502 101.7 122.563 101.712 121.901 101.563L121.754 101.893L123.525 103.414C123.472 103.458 123.408 103.508 123.338 103.564C122.734 104.032 121.525 104.83 120.159 104.954C119.772 104.736 116.857 102.417 114.5 100.54C112.782 99.1749 111.151 97.8782 110.594 97.4667C110.536 97.2921 111.146 96.5191 112.436 95.5153C112.958 95.1101 113.327 94.8732 113.462 94.8171C116.195 96.6437 117.925 96.7061 118.64 96.1512C118.969 95.8956 119.356 95.2285 118.74 94.3308C118.517 94.0004 118.171 93.6637 117.719 93.3271C116.576 92.4854 114.922 92.5166 112.834 92.5665C111.955 92.5852 110.952 92.6101 109.891 92.5665C105.645 92.4106 101.704 91.968 96.4202 88.0652C94.8427 86.8994 93.5291 85.5839 92.6259 84.2622C91.0954 82.0178 90.8432 79.9231 91.975 78.8009L92.1392 78.6388L91.9515 78.5079C90.8784 77.7535 89.5002 76.7373 87.8465 75.478L87.8348 75.4717C87.8758 75.4343 87.9403 75.3844 88.0224 75.3221C88.515 74.9418 89.4006 74.3433 89.7348 74.1251C89.7524 74.1126 89.7641 74.1064 89.7759 74.0939C90.245 74.3745 92.7198 76.0578 94.5729 77.3607L94.6316 77.4044L94.7019 77.3919C96.2794 77.049 97.7103 77.261 98.3085 77.4356L98.461 77.1051C98.0798 76.7997 97.5637 76.3882 97.0887 76.0141C96.7251 75.7273 96.3264 75.4094 96.0859 75.2161C96.6723 74.9044 97.939 74.1251 99.0357 73.4331C99.8977 74.0253 103.557 76.7061 109.932 81.4131C109.281 82.6226 108.354 83.5889 107.738 84.069C107.598 84.1812 107.463 84.2685 107.357 84.3246C104.302 82.6288 101.575 81.9181 100.701 82.5914C100.15 83.0154 100.103 83.7198 100.578 84.4119C100.789 84.7236 101.094 85.0228 101.493 85.3158C103.545 86.8308 105.375 86.7809 107.498 86.7248C107.991 86.7124 108.507 86.6937 109.034 86.7061C113.48 86.6937 117.35 87.0303 123.314 91.438C124.716 92.4729 125.871 93.6201 126.645 94.7547C128.158 96.9679 128.181 98.9442 126.71 100.316L126.539 100.478L126.727 100.615C128.844 102.118 130.281 103.152 130.58 103.389C130.474 103.664 129.812 104.543 129.354 104.898C129.307 104.948 129.272 104.967 129.249 104.979ZM97.4523 93.8133L99.0943 97.5664L104.085 98.7136L102.455 94.9605L97.4523 93.8133ZM103.78 98.4517L99.2175 97.4044L97.7631 94.0752L102.331 95.1226L103.78 98.4517ZM121.625 85.0976L119.989 81.3508L114.993 80.2036L116.629 83.963L121.625 85.0976ZM115.303 80.4592L119.872 81.5066L121.32 84.8296L116.758 83.7884L115.303 80.4592ZM124.727 77.6725C108.196 65.4655 87.9403 60.8146 79.566 67.3109C71.1976 73.8071 77.8361 89.0316 94.3618 101.239C110.893 113.445 131.149 118.09 139.517 111.594C147.892 105.098 141.253 89.8857 124.727 77.6725ZM94.4615 101.089C88.7555 96.8744 84.0229 92.1363 80.78 87.3919C74.9684 78.8882 74.552 71.4381 79.6657 67.4668C87.9814 61.0141 108.149 65.665 124.622 77.8283C130.328 82.0428 135.06 86.7809 138.303 91.5253C144.115 100.029 144.525 107.473 139.412 111.444C131.102 117.903 110.934 113.252 94.4615 101.089ZM135.963 91.1263C132.996 86.7809 128.668 82.448 123.449 78.5889C108.366 67.448 89.8521 63.2211 82.1874 69.175C77.3669 72.9156 77.7188 79.8732 83.1257 87.7909C86.0931 92.1363 90.4209 96.4692 95.6402 100.328C110.723 111.469 129.231 115.69 136.896 109.736C141.716 105.995 141.365 99.0378 135.963 91.1263ZM95.7399 100.172C80.7154 89.0752 74.6752 75.2348 82.2871 69.3246C89.899 63.4206 108.313 67.6475 123.343 78.7448C138.368 89.842 144.402 103.676 136.79 109.58C129.184 115.49 110.77 111.27 95.7399 100.172Z" fill="url(#paint4_linear)"/>
<path d="M138.233 123.364C138.239 123.358 138.245 123.358 138.251 123.352C138.579 123.14 138.896 122.922 139.201 122.685C139.224 122.666 139.242 122.654 139.265 122.635C139.4 122.529 139.517 122.411 139.646 122.305C139.811 122.161 139.981 122.024 140.133 121.874C140.145 121.862 140.157 121.856 140.168 121.843C140.28 121.731 140.379 121.613 140.485 121.5C140.632 121.344 140.784 121.189 140.925 121.027C140.937 121.014 140.954 120.995 140.966 120.983C141.06 120.871 141.136 120.746 141.224 120.634C141.353 120.459 141.488 120.291 141.605 120.11C141.617 120.091 141.634 120.073 141.652 120.048C141.828 119.78 141.986 119.499 142.133 119.219L146.25 111.282C146.091 111.588 145.915 111.881 145.722 112.174C145.605 112.354 145.47 112.523 145.341 112.697C145.241 112.828 145.153 112.965 145.042 113.09C144.907 113.252 144.754 113.408 144.602 113.564C144.484 113.689 144.373 113.82 144.25 113.938C144.097 114.088 143.927 114.225 143.763 114.368C143.617 114.493 143.476 114.63 143.317 114.755C143.013 114.992 142.696 115.21 142.367 115.422C142.309 115.459 142.244 115.49 142.186 115.528C141.892 115.709 141.593 115.883 141.277 116.045C140.983 116.195 140.684 116.338 140.379 116.469C140.315 116.494 140.256 116.519 140.192 116.55C139.858 116.687 139.517 116.825 139.166 116.943C139.148 116.949 139.124 116.955 139.107 116.962C138.778 117.074 138.444 117.174 138.098 117.267C137.999 117.292 137.899 117.323 137.799 117.348C137.43 117.442 137.054 117.535 136.667 117.616C136.661 117.616 136.656 117.616 136.65 117.616C136.257 117.697 135.858 117.76 135.448 117.822C135.319 117.841 135.184 117.859 135.055 117.872C134.779 117.909 134.503 117.94 134.222 117.965C133.999 117.99 133.776 118.003 133.547 118.022C133.301 118.04 133.055 118.059 132.809 118.071C132.58 118.084 132.345 118.09 132.111 118.096C131.835 118.103 131.554 118.109 131.272 118.109C131.114 118.109 130.961 118.109 130.803 118.109C130.451 118.103 130.099 118.096 129.742 118.078C129.624 118.071 129.507 118.071 129.39 118.065C128.915 118.04 128.44 118.009 127.953 117.965C127.841 117.953 127.736 117.941 127.624 117.934C127.273 117.903 126.915 117.866 126.557 117.822C125.912 117.747 125.261 117.66 124.598 117.554C124.569 117.548 124.54 117.541 124.511 117.541C123.877 117.436 123.232 117.317 122.581 117.186C122.376 117.142 122.171 117.099 121.96 117.055C121.461 116.949 120.957 116.837 120.452 116.712C120.241 116.662 120.03 116.613 119.819 116.556C119.174 116.394 118.529 116.22 117.878 116.033C117.825 116.02 117.772 116.002 117.72 115.989C116.94 115.765 116.148 115.515 115.356 115.253C115.157 115.185 114.952 115.116 114.752 115.048C114.019 114.798 113.28 114.537 112.535 114.256C112.465 114.231 112.389 114.206 112.319 114.175C112.178 114.119 112.037 114.063 111.896 114.007C111.462 113.838 111.028 113.67 110.589 113.489C110.377 113.402 110.166 113.308 109.949 113.221C109.609 113.078 109.275 112.934 108.935 112.791C108.149 112.448 107.369 112.099 106.583 111.725C106.413 111.644 106.237 111.556 106.067 111.475C105.528 111.214 104.982 110.946 104.443 110.671C104.191 110.547 103.938 110.416 103.692 110.285C103.264 110.06 102.83 109.83 102.402 109.599C102.144 109.455 101.886 109.318 101.628 109.175C101.217 108.944 100.807 108.714 100.396 108.477C100.144 108.333 99.8978 108.19 99.6457 108.04C99.2293 107.791 98.8129 107.535 98.3907 107.28C98.162 107.143 97.9391 107.005 97.7104 106.862C97.253 106.575 96.7956 106.276 96.3382 105.977C96.1681 105.864 95.9922 105.758 95.8221 105.646C95.1946 105.235 94.573 104.811 93.9572 104.374C93.3767 103.969 92.7961 103.552 92.2214 103.128C92.0455 102.997 91.8695 102.859 91.6936 102.729C91.2479 102.392 90.8022 102.055 90.3683 101.719C90.1865 101.575 90.0047 101.432 89.8229 101.288C89.4006 100.952 88.9843 100.615 88.5738 100.272C88.4213 100.148 88.263 100.017 88.1105 99.8919C87.5475 99.4181 87.0021 98.9443 86.4626 98.4705C86.3805 98.3956 86.2984 98.3208 86.2163 98.246C85.7296 97.8034 85.2487 97.3607 84.7795 96.9181C84.6447 96.7934 84.5098 96.6625 84.3808 96.5378C83.8002 95.9767 83.2372 95.4156 82.6918 94.8545C82.4866 94.6425 82.2872 94.4306 82.0878 94.2186C81.9412 94.0627 81.7887 93.9006 81.6421 93.7448C81.4193 93.5016 81.2023 93.2585 80.9853 93.0216C80.8563 92.8782 80.7273 92.7348 80.5983 92.5914C80.5103 92.4917 80.4282 92.3919 80.3402 92.2922C80.0353 91.943 79.7421 91.5939 79.4547 91.2448C79.3257 91.0889 79.2025 90.9331 79.0794 90.7834C78.839 90.4842 78.6044 90.1912 78.3757 89.8919C78.2525 89.7298 78.1294 89.574 78.0121 89.4181C77.7599 89.0815 77.5077 88.7386 77.2673 88.4019C77.1793 88.2772 77.0855 88.1525 76.9975 88.0278C76.6809 87.5727 76.3701 87.1176 76.0827 86.6625C76.0299 86.5815 75.9771 86.4942 75.9244 86.4131C75.6898 86.0391 75.4611 85.6712 75.2441 85.2972C75.1561 85.1475 75.074 85.0042 74.9919 84.8545C74.8101 84.5366 74.6342 84.2248 74.47 83.9069C74.3938 83.7635 74.3117 83.6139 74.2413 83.4705C74.0478 83.0964 73.866 82.7286 73.6959 82.3608C73.6607 82.286 73.6255 82.2111 73.5904 82.1426C73.391 81.7062 73.2033 81.2697 73.0274 80.8333C72.9805 80.7149 72.9394 80.5964 72.8925 80.478C72.7693 80.16 72.6579 79.8483 72.5465 79.5303C72.4996 79.387 72.4527 79.2436 72.4058 79.1002C72.3061 78.7947 72.2181 78.4892 72.136 78.19C72.1008 78.0653 72.0656 77.9468 72.0363 77.8221C71.9307 77.4107 71.8369 76.9992 71.7607 76.5939C71.7548 76.5503 71.7489 76.5067 71.7372 76.4568C71.6727 76.0952 71.6199 75.7398 71.573 75.3907C71.5554 75.266 71.5496 75.1413 71.5378 75.0166C71.5085 74.7423 71.4909 74.4618 71.4792 74.1937C71.4733 74.069 71.4675 73.9381 71.4675 73.8134C71.4616 73.5142 71.4675 73.2149 71.4792 72.9219C71.4851 72.8408 71.4792 72.7598 71.4851 72.6787C71.5085 72.3109 71.5496 71.9493 71.6023 71.5939C71.6141 71.5067 71.6375 71.4194 71.6493 71.3259C71.6962 71.0578 71.749 70.796 71.8135 70.5341C71.8428 70.4219 71.8721 70.3034 71.9073 70.1912C71.9777 69.9481 72.0539 69.7174 72.136 69.4805C72.1712 69.3807 72.2064 69.2748 72.2474 69.1812C72.3764 68.857 72.5113 68.5391 72.6755 68.2336L68.5587 76.17C68.4004 76.4755 68.2597 76.7934 68.1306 77.1176C68.0896 77.2174 68.0603 77.3171 68.0192 77.4169C67.9371 77.6476 67.8609 77.8845 67.7905 78.1276C67.7612 78.2398 67.726 78.352 67.6967 78.4705C67.6322 78.7323 67.5794 78.9942 67.5325 79.2623C67.5149 79.3496 67.4973 79.4368 67.4856 79.5303C67.4328 79.8857 67.3917 80.2473 67.3683 80.6151C67.3624 80.6962 67.3624 80.7772 67.3624 80.8583C67.3507 81.1513 67.3448 81.4443 67.3507 81.7498C67.3507 81.8745 67.3566 82.0054 67.3624 82.1301C67.3741 82.4044 67.3917 82.6787 67.4211 82.953C67.4328 83.0777 67.4445 83.2024 67.4562 83.3271C67.4973 83.6762 67.5501 84.0316 67.6146 84.3932C67.6204 84.4368 67.6263 84.4867 67.638 84.5303C67.7143 84.9356 67.8081 85.347 67.9137 85.7585C67.943 85.877 67.9782 86.0017 68.0134 86.1264C68.0955 86.4256 68.1834 86.7311 68.2831 87.0366C68.33 87.18 68.377 87.3234 68.4239 87.4667C68.5294 87.7785 68.6467 88.0964 68.7699 88.4081C68.8168 88.5266 68.8578 88.645 68.9047 88.7697C69.0807 89.1999 69.2625 89.6363 69.4677 90.079C69.5029 90.1538 69.5381 90.2286 69.5733 90.2972C69.7433 90.665 69.9251 91.039 70.1187 91.4069C70.1949 91.5503 70.2711 91.6937 70.3474 91.8433C70.5174 92.155 70.6875 92.473 70.8693 92.7909C70.9514 92.9405 71.0394 93.0839 71.1215 93.2336C71.3384 93.6076 71.5672 93.9754 71.8076 94.3495C71.8604 94.4306 71.9073 94.5116 71.9601 94.5989C72.2533 95.054 72.5582 95.5091 72.8808 95.9642C72.9687 96.0889 73.0567 96.2136 73.1447 96.3321C73.3851 96.675 73.6373 97.0116 73.8894 97.3545C73.9422 97.4293 73.995 97.5041 74.0536 97.5727C74.1181 97.66 74.1885 97.741 74.253 97.8283C74.4817 98.1276 74.7163 98.4268 74.9568 98.7198C75.0799 98.8757 75.2031 99.0253 75.3321 99.1812C75.6194 99.5303 75.9185 99.8794 76.2176 100.229C76.288 100.31 76.3525 100.391 76.4228 100.472C76.4404 100.49 76.458 100.509 76.4698 100.528C76.5929 100.671 76.7278 100.815 76.8568 100.958C77.0738 101.201 77.2849 101.444 77.5077 101.681C77.6544 101.843 77.8068 101.999 77.9593 102.161C78.1294 102.342 78.2994 102.529 78.4754 102.71C78.5047 102.741 78.534 102.766 78.5633 102.797C79.1087 103.358 79.6717 103.919 80.2523 104.48C80.3109 104.537 80.3578 104.593 80.4165 104.643C80.4927 104.717 80.5748 104.786 80.651 104.861C81.1202 105.303 81.5952 105.746 82.0878 106.189C82.1523 106.245 82.2051 106.301 82.2696 106.357C82.2872 106.376 82.3106 106.394 82.3282 106.407C82.8619 106.887 83.4131 107.361 83.9761 107.828C84.023 107.872 84.0699 107.909 84.1169 107.953C84.2224 108.04 84.3338 108.128 84.4335 108.215C84.844 108.558 85.2604 108.894 85.6826 109.231C85.7823 109.312 85.882 109.393 85.9817 109.474C86.0638 109.537 86.1459 109.599 86.228 109.661C86.662 110.004 87.1077 110.341 87.5592 110.677C87.6648 110.758 87.7704 110.84 87.8759 110.921C87.9463 110.97 88.0108 111.02 88.0812 111.076C88.6441 111.494 89.213 111.906 89.7877 112.305C89.7994 112.311 89.8053 112.317 89.817 112.323C90.4328 112.76 91.0544 113.177 91.6819 113.595C91.6995 113.608 91.7112 113.614 91.7288 113.626C91.8871 113.732 92.0396 113.826 92.1979 113.926C92.6554 114.225 93.1128 114.524 93.5702 114.811C93.6112 114.836 93.6464 114.861 93.6875 114.886C93.8751 115.004 94.0628 115.11 94.2505 115.222C94.6668 115.478 95.0832 115.734 95.5054 115.983C95.5758 116.027 95.6462 116.07 95.7165 116.108C95.8983 116.214 96.0743 116.313 96.2561 116.413C96.6666 116.65 97.0771 116.887 97.4876 117.118C97.5931 117.18 97.6987 117.242 97.8043 117.298C97.9567 117.379 98.1092 117.46 98.2617 117.541C98.6898 117.772 99.1237 118.003 99.5518 118.227C99.6984 118.302 99.8392 118.383 99.9858 118.458C100.091 118.514 100.197 118.564 100.302 118.614C100.842 118.888 101.387 119.156 101.927 119.418C102.062 119.48 102.197 119.555 102.337 119.618C102.373 119.636 102.414 119.649 102.449 119.667C103.235 120.041 104.015 120.391 104.8 120.734C104.871 120.765 104.935 120.796 105.006 120.827C105.275 120.945 105.551 121.051 105.821 121.17C106.032 121.257 106.243 121.351 106.454 121.432C106.894 121.613 107.328 121.781 107.762 121.949C107.903 122.005 108.043 122.061 108.184 122.118C108.202 122.124 108.219 122.13 108.237 122.136C108.29 122.155 108.342 122.174 108.401 122.192C109.146 122.473 109.885 122.735 110.618 122.984C110.817 123.053 111.023 123.121 111.222 123.19C112.014 123.452 112.805 123.701 113.585 123.926C113.591 123.926 113.597 123.932 113.609 123.932C113.656 123.944 113.697 123.957 113.744 123.969C114.394 124.156 115.045 124.331 115.685 124.493C115.896 124.549 116.107 124.599 116.318 124.649C116.822 124.773 117.327 124.886 117.825 124.992C118.03 125.035 118.236 125.079 118.441 125.123C119.092 125.253 119.737 125.372 120.37 125.478C120.4 125.484 120.429 125.49 120.458 125.49C121.121 125.596 121.772 125.684 122.417 125.758C122.481 125.765 122.552 125.777 122.622 125.783C122.915 125.815 123.197 125.839 123.484 125.871C123.596 125.883 123.707 125.896 123.813 125.902C124.299 125.945 124.774 125.977 125.249 126.002C125.367 126.008 125.484 126.008 125.601 126.014C125.959 126.027 126.311 126.039 126.663 126.045C126.821 126.045 126.974 126.045 127.132 126.045C127.278 126.045 127.425 126.051 127.572 126.045C127.707 126.045 127.841 126.033 127.976 126.033C128.211 126.027 128.44 126.02 128.674 126.008C128.926 125.995 129.167 125.977 129.413 125.958C129.642 125.939 129.865 125.921 130.088 125.902C130.187 125.889 130.293 125.889 130.392 125.877C130.574 125.858 130.744 125.827 130.926 125.808C131.055 125.79 131.19 125.777 131.319 125.758C131.724 125.696 132.122 125.634 132.515 125.553C132.521 125.553 132.527 125.553 132.533 125.546C132.92 125.465 133.295 125.378 133.665 125.285C133.764 125.26 133.864 125.229 133.958 125.204C134.069 125.172 134.181 125.147 134.286 125.116C134.515 125.048 134.744 124.973 134.967 124.898C134.984 124.892 135.002 124.886 135.019 124.879C135.272 124.792 135.524 124.699 135.77 124.605C135.864 124.568 135.958 124.524 136.052 124.487C136.116 124.462 136.175 124.437 136.239 124.406C136.521 124.287 136.79 124.162 137.06 124.025C137.09 124.013 137.113 123.994 137.136 123.982C137.447 123.82 137.752 123.645 138.045 123.464C138.122 123.421 138.18 123.396 138.233 123.364Z" fill="url(#paint5_linear)"/>
<path opacity="0.7" d="M135.788 117.753L78.2525 89.7049C76.8275 87.8345 75.6077 85.9767 74.6166 84.1563L140.632 116.338C139.189 116.993 137.565 117.46 135.788 117.753ZM147.346 107.679L71.7431 70.8209C71.4909 71.968 71.4205 73.1962 71.5026 74.4804L146.373 110.977C146.865 109.96 147.188 108.851 147.346 107.679ZM144.795 113.352C145.141 112.965 145.446 112.554 145.722 112.13L71.6786 76.0328C71.7783 76.6438 71.9014 77.261 72.0656 77.8969L144.795 113.352ZM139.981 88.9131L83.9761 61.6127C80.6334 62.0366 77.7716 63.059 75.6018 64.7423C75.5197 64.8047 75.4435 64.8795 75.3672 64.9481L146.179 99.4679C144.954 96.1014 142.86 92.5228 139.981 88.9131Z" fill="url(#paint6_linear)"/>
</g>
<defs>
<filter id="filter0_d" x="0.681717" y="0.0458732" width="213.44" height="198.002" filterUnits="userSpaceOnUse" color-interpolation-filters="sRGB">
<feFlood flood-opacity="0" result="BackgroundImageFix"/>
<feColorMatrix in="SourceAlpha" type="matrix" values="0 0 0 0 0 0 0 0 0 0 0 0 0 0 0 0 0 0 127 0" result="hardAlpha"/>
<feOffset dy="5.33333"/>
<feGaussianBlur stdDeviation="33.3333"/>
<feColorMatrix type="matrix" values="0 0 0 0 0.0666666 0 0 0 0 0.0941176 0 0 0 0 0.286275 0 0 0 0.5 0"/>
<feBlend mode="normal" in2="BackgroundImageFix" result="effect1_dropShadow"/>
<feBlend mode="normal" in="SourceGraphic" in2="effect1_dropShadow" result="shape"/>
</filter>
<linearGradient id="paint0_linear" x1="138.064" y1="81.4752" x2="79.7298" y2="96.3946" gradientUnits="userSpaceOnUse">
<stop offset="0.0317" stop-color="#FCE878"/>
<stop offset="0.0527" stop-color="#FCE676"/>
<stop offset="0.6976" stop-color="#FEB432"/>
<stop offset="1" stop-color="#FFA018"/>
</linearGradient>
<linearGradient id="paint1_linear" x1="63.5655" y1="90.7716" x2="141.919" y2="89.2186" gradientUnits="userSpaceOnUse">
<stop stop-color="#FFE6B9" stop-opacity="0"/>
<stop offset="0.3821" stop-color="#FFF3DE" stop-opacity="0.4239"/>
<stop offset="0.7037" stop-color="#FFFCF6" stop-opacity="0.7807"/>
<stop offset="0.9014" stop-color="white"/>
</linearGradient>
<linearGradient id="paint2_linear" x1="133.749" y1="87.3535" x2="80.3112" y2="91.9655" gradientUnits="userSpaceOnUse">
<stop offset="0.0431" stop-color="#FFA018"/>
<stop offset="0.9874" stop-color="#D36B18"/>
</linearGradient>
<linearGradient id="paint3_linear" x1="68.8052" y1="112.479" x2="128.903" y2="82.4255" gradientUnits="userSpaceOnUse">
<stop stop-color="#FFB817"/>
<stop offset="0.9893" stop-color="#FFFFBC"/>
</linearGradient>
<linearGradient id="paint4_linear" x1="84.4027" y1="90.2858" x2="140.872" y2="88.6366" gradientUnits="userSpaceOnUse">
<stop stop-color="#FFE6B9" stop-opacity="0"/>
<stop offset="0.3821" stop-color="#FFF3DE" stop-opacity="0.4239"/>
<stop offset="0.7037" stop-color="#FFFCF6" stop-opacity="0.7807"/>
<stop offset="0.9014" stop-color="white"/>
</linearGradient>
<linearGradient id="paint5_linear" x1="139.702" y1="123.827" x2="63.9346" y2="85.5712" gradientUnits="userSpaceOnUse">
<stop stop-color="#FFC826"/>
<stop offset="0.0945" stop-color="#FFA018"/>
<stop offset="0.2186" stop-color="#F8771E"/>
<stop offset="0.3662" stop-color="#EC6D1A"/>
<stop offset="0.6301" stop-color="#CD510E"/>
<stop offset="0.721" stop-color="#C14609"/>
<stop offset="0.7796" stop-color="#C64A0B"/>
<stop offset="0.8451" stop-color="#D35610"/>
<stop offset="0.9137" stop-color="#E96A18"/>
<stop offset="0.9495" stop-color="#F8771E"/>
<stop offset="0.9701" stop-color="#F87A1E"/>
<stop offset="0.9825" stop-color="#FA821C"/>
<stop offset="0.9927" stop-color="#FC901A"/>
<stop offset="1" stop-color="#FFA018"/>
</linearGradient>
<linearGradient id="paint6_linear" x1="77.3788" y1="90.391" x2="155.136" y2="88.8898" gradientUnits="userSpaceOnUse">
<stop stop-color="#FFE6B9" stop-opacity="0"/>
<stop offset="0.9014" stop-color="white"/>
</linearGradient>
</defs>
</svg>
