<svg width="24" height="24" viewBox="0 0 24 24" fill="none" xmlns="http://www.w3.org/2000/svg">
<path d="M17.9667 0.0112305H6.01427C2.70262 0.0112305 0 2.71385 0 6.0255V17.997C0 21.2896 2.70262 23.9922 6.01427 23.9922H17.9857C21.2974 23.9922 24 21.2896 24 17.9779V6.0255C23.981 2.71385 21.2784 0.0112305 17.9667 0.0112305ZM7.99366 19.4244H4.5678V9.52749H7.99366V19.4244ZM6.2617 8.00489C5.29104 8.00489 4.51071 7.22455 4.51071 6.25389C4.51071 5.28324 5.29104 4.5029 6.2617 4.5029C7.23236 4.5029 8.01269 5.28324 8.01269 6.25389C7.99366 7.22455 7.21332 8.00489 6.2617 8.00489ZM19.4322 19.4244H19.4132H16.5583V14.6282C16.5583 13.4672 16.406 11.9827 14.8263 11.9827C13.2086 11.9827 12.9421 13.2388 12.9421 14.5521V19.4244H10.0872V9.52749H12.7518V10.8598H12.8279C13.2466 10.0985 14.2173 9.50845 15.7399 9.50845C18.8803 9.50845 19.4322 11.3165 19.4322 14.0001V19.4244Z" fill="white"/>
</svg>
