<svg width="24" height="24" viewBox="0 0 24 24" fill="none" xmlns="http://www.w3.org/2000/svg">
<path d="M17.9667 0.0100098H6.01427C2.70262 0.0100098 0 2.71263 0 6.02428V17.9957C0 21.2884 2.70262 23.991 6.01427 23.991H17.9857C21.2974 23.991 24 21.2884 24 17.9767V6.02428C23.981 2.71263 21.2784 0.0100098 17.9667 0.0100098ZM17.9477 8.99335C17.9477 9.12658 17.9477 9.25981 17.9477 9.39304C17.9477 13.3899 14.8644 17.9957 9.21174 17.9957C7.47978 17.9957 5.86201 17.5009 4.51071 16.6444C4.75813 16.6635 4.98652 16.6825 5.23394 16.6825C6.68041 16.6825 7.99366 16.2067 9.04044 15.3883C7.68914 15.3692 6.56622 14.4937 6.16653 13.2947C6.35686 13.3328 6.54718 13.3518 6.73751 13.3518C7.023 13.3518 7.30849 13.3137 7.55591 13.2376C6.18557 12.9521 5.13878 11.734 5.13878 10.2685V10.2305C5.51943 10.4589 6.01427 10.5921 6.50912 10.6111C5.69072 10.0782 5.13878 9.14561 5.13878 8.09883C5.13878 7.54688 5.29104 7.03301 5.55749 6.57623C7.0801 8.40335 9.32593 9.6024 11.8763 9.73562C11.8192 9.50723 11.8002 9.27884 11.8002 9.05045C11.8002 7.37559 13.1705 6.02428 14.8644 6.02428C15.7399 6.02428 16.5393 6.3859 17.1102 6.97591C17.8144 6.84268 18.4615 6.59526 19.0515 6.23364C18.8232 6.93784 18.3283 7.52785 17.7002 7.9085C18.3283 7.83237 18.9183 7.68011 19.4703 7.43269C19.0515 8.04173 18.5377 8.57464 17.9477 8.99335Z" fill="white"/>
</svg>
